<?xml version="1.0" encoding="UTF-8" standalone="no"?>
<!-- Created with Inkscape (http://www.inkscape.org/) -->

<svg
   xmlns:dc="http://purl.org/dc/elements/1.1/"
   xmlns:cc="http://creativecommons.org/ns#"
   xmlns:rdf="http://www.w3.org/1999/02/22-rdf-syntax-ns#"
   xmlns:svg="http://www.w3.org/2000/svg"
   xmlns="http://www.w3.org/2000/svg"
   xmlns:xlink="http://www.w3.org/1999/xlink"
   xmlns:sodipodi="http://sodipodi.sourceforge.net/DTD/sodipodi-0.dtd"
   xmlns:inkscape="http://www.inkscape.org/namespaces/inkscape"
   width="512"
   height="512"
   viewBox="0 0 512.00001 512.00001"
   id="svg2"
   version="1.1"
   inkscape:version="0.91 r"
   sodipodi:docname="icon.svg"
   inkscape:export-filename="/home/phqb/HTML, CSS, Javascript/shooting-stars/www/res/icon/windows-phone/icon-173-tile.png"
   inkscape:export-xdpi="30.41"
   inkscape:export-ydpi="30.41">
  <defs
     id="defs4" />
  <sodipodi:namedview
     id="base"
     pagecolor="#744d4d"
     bordercolor="#666666"
     borderopacity="1.0"
     inkscape:pageopacity="0"
     inkscape:pageshadow="2"
     inkscape:zoom="1.062885"
     inkscape:cx="220.74314"
     inkscape:cy="252.8834"
     inkscape:document-units="px"
     inkscape:current-layer="layer1"
     showgrid="false"
     inkscape:window-width="1551"
     inkscape:window-height="876"
     inkscape:window-x="49"
     inkscape:window-y="24"
     inkscape:window-maximized="1"
     units="px" />
  <metadata
     id="metadata7">
    <rdf:RDF>
      <cc:Work
         rdf:about="">
        <dc:format>image/svg+xml</dc:format>
        <dc:type
           rdf:resource="http://purl.org/dc/dcmitype/StillImage" />
        <dc:title />
      </cc:Work>
    </rdf:RDF>
  </metadata>
  <g
     inkscape:label="Layer 1"
     inkscape:groupmode="layer"
     id="layer1"
     transform="translate(0,-540.36216)">
    <path
       sodipodi:type="star"
       style="opacity:0.95999995;fill:#000539;fill-opacity:1;stroke:none;stroke-width:4;stroke-miterlimit:4;stroke-dasharray:none;stroke-opacity:1"
       id="path4156"
       sodipodi:sides="6"
       sodipodi:cx="256.00001"
       sodipodi:cy="796.38964"
       sodipodi:r1="256.00001"
       sodipodi:r2="207.10836"
       sodipodi:arg1="1.0471976"
       sodipodi:arg2="1.5707964"
       inkscape:flatsided="true"
       inkscape:rounded="0"
       inkscape:randomized="0"
       d="m 383.99999,1018.0922 -256,-1e-4 L 0,796.38964 l 128.00001,-221.7025 256,10e-6 L 512,796.38966 Z"
       inkscape:transform-center-x="-6.9614117"
       inkscape:transform-center-y="-13.846553" />
    <circle
       style="opacity:0.95999995;fill:#ffffff;fill-opacity:1;stroke:none;stroke-width:2;stroke-miterlimit:4;stroke-dasharray:none;stroke-opacity:1;"
       id="path4160"
       cx="199.41281"
       cy="607.33032"
       r="34.608173"
       transform="matrix(1.1878445,0,0,1.1878445,-54.344953,206.40905)" />
    <path
       style="fill:#ffffff;fill-opacity:1;fill-rule:evenodd;stroke:none;stroke-width:1px;stroke-linecap:butt;stroke-linejoin:miter;stroke-opacity:1"
       d="m 202.47349,893.42212 124.68407,-318.79018 58.1997,0 24.72749,44.58314 z"
       id="path4162"
       inkscape:connector-curvature="0"
       sodipodi:nodetypes="ccccc" />
    <circle
       style="opacity:0.95999995;fill:#ffffff;fill-opacity:1;stroke:none;stroke-width:4;stroke-miterlimit:4;stroke-dasharray:none;stroke-opacity:1"
       id="path4166"
       cx="126.20756"
       cy="704.35431"
       r="2.8659129" />
    <use
       id="use4492"
       xlink:href="#path4166"
       transform="matrix(0.98710774,0,0,0.98710774,17.993333,53.029362)"
       x="0"
       y="0"
       width="100%"
       height="100%" />
    <use
       id="use4494"
       xlink:href="#path4166"
       transform="matrix(0.39163374,0,0,0.39163374,153.23798,505.37646)"
       x="0"
       y="0"
       width="100%"
       height="100%" />
    <use
       id="use4496"
       xlink:href="#path4166"
       transform="matrix(1.3437968,0,0,1.3437968,73.978741,-214.46463)"
       x="0"
       y="0"
       width="100%"
       height="100%" />
    <use
       id="use4502"
       xlink:href="#path4166"
       transform="matrix(1.5900851,0,0,1.5900851,63.816401,-291.04522)"
       x="0"
       y="0"
       width="100%"
       height="100%" />
    <use
       id="use4504"
       xlink:href="#path4166"
       transform="matrix(0.99376068,0,0,0.99376068,117.40924,-46.214)"
       x="0"
       y="0"
       width="100%"
       height="100%" />
    <use
       id="use4506"
       xlink:href="#path4166"
       transform="matrix(0.92856421,0,0,0.92856421,70.747369,163.59657)"
       x="0"
       y="0"
       width="100%"
       height="100%" />
    <use
       id="use4508"
       xlink:href="#path4166"
       transform="matrix(0.44207871,0,0,0.44207871,-4.6887017,508.47865)"
       x="0"
       y="0"
       width="100%"
       height="100%" />
    <use
       id="use4510"
       xlink:href="#path4166"
       transform="matrix(1.3155218,0,0,1.3155218,97.732203,-80.012128)"
       x="0"
       y="0"
       width="100%"
       height="100%" />
    <use
       id="use4512"
       xlink:href="#path4166"
       transform="matrix(1.4463084,0,0,1.4463084,-157.31011,-226.2464)"
       x="0"
       y="0"
       width="100%"
       height="100%" />
    <use
       id="use4514"
       xlink:href="#path4166"
       transform="matrix(1.3979179,0,0,1.3979179,35.097517,-80.680544)"
       x="0"
       y="0"
       width="100%"
       height="100%" />
    <use
       id="use4516"
       xlink:href="#path4166"
       transform="matrix(1.5520864,0,0,1.5520864,-70.873826,-324.53846)"
       x="0"
       y="0"
       width="100%"
       height="100%" />
    <use
       id="use4518"
       xlink:href="#path4166"
       transform="matrix(1.1464043,0,0,1.1464043,165.83404,100.32628)"
       x="0"
       y="0"
       width="100%"
       height="100%" />
    <use
       id="use4520"
       xlink:href="#path4166"
       transform="matrix(0.58275086,0,0,0.58275086,166.94264,244.5291)"
       x="0"
       y="0"
       width="100%"
       height="100%" />
    <use
       id="use4524"
       xlink:href="#path4166"
       transform="matrix(1.5223322,0,0,1.5223322,227.95465,-257.91488)"
       x="0"
       y="0"
       width="100%"
       height="100%" />
    <use
       id="use4526"
       xlink:href="#path4166"
       transform="matrix(1.1838868,0,0,1.1838868,192.18196,-68.110388)"
       x="0"
       y="0"
       width="100%"
       height="100%" />
    <use
       id="use4534"
       xlink:href="#path4166"
       transform="matrix(0.75087345,0,0,0.75087345,236.85479,460.55874)"
       x="0"
       y="0"
       width="100%"
       height="100%" />
    <use
       id="use4536"
       xlink:href="#path4166"
       transform="matrix(1.0430366,0,0,1.0430366,66.744669,179.3192)"
       x="0"
       y="0"
       width="100%"
       height="100%" />
    <use
       id="use4538"
       xlink:href="#path4166"
       transform="matrix(0.37795738,0,0,0.37795738,334.70097,728.25292)"
       x="0"
       y="0"
       width="100%"
       height="100%" />
    <use
       id="use4540"
       xlink:href="#path4166"
       transform="matrix(0.9284407,0,0,0.9284407,228.53949,317.48858)"
       x="0"
       y="0"
       width="100%"
       height="100%" />
  </g>
</svg>
